<mxfile host="app.diagrams.net" modified="2021-08-12T07:53:38.858Z" agent="5.0 (Windows NT 10.0; Win64; x64) AppleWebKit/537.36 (KHTML, like Gecko) Chrome/92.0.4515.131 Safari/537.36" etag="EC4sTtNBPlKmdC8ssbJY" version="14.9.6" type="github" pages="4">
  <diagram id="Cs8VYSzviX3HukUYh3YY" name="Sequence">
    <mxGraphModel dx="782" dy="468" grid="1" gridSize="10" guides="1" tooltips="1" connect="1" arrows="1" fold="1" page="1" pageScale="1" pageWidth="1400" pageHeight="850" math="0" shadow="0">
      <root>
        <mxCell id="0" />
        <mxCell id="1" parent="0" />
        <mxCell id="5A1ssLU1VLZ0-FPkcArc-1" value="M1" style="shape=umlLifeline;perimeter=lifelinePerimeter;container=1;collapsible=0;recursiveResize=0;rounded=0;shadow=0;strokeWidth=1;" parent="1" vertex="1">
          <mxGeometry x="120" y="80" width="100" height="750" as="geometry" />
        </mxCell>
        <mxCell id="5A1ssLU1VLZ0-FPkcArc-2" value="" style="points=[];perimeter=orthogonalPerimeter;rounded=0;shadow=0;strokeWidth=1;" parent="5A1ssLU1VLZ0-FPkcArc-1" vertex="1">
          <mxGeometry x="45" y="70" width="10" height="620" as="geometry" />
        </mxCell>
        <mxCell id="5A1ssLU1VLZ0-FPkcArc-3" value="Joined/Restarted" style="verticalAlign=bottom;startArrow=oval;endArrow=block;startSize=8;shadow=0;strokeWidth=1;" parent="5A1ssLU1VLZ0-FPkcArc-1" target="5A1ssLU1VLZ0-FPkcArc-2" edge="1">
          <mxGeometry relative="1" as="geometry">
            <mxPoint x="-50" y="70" as="sourcePoint" />
          </mxGeometry>
        </mxCell>
        <mxCell id="5A1ssLU1VLZ0-FPkcArc-14" value="" style="curved=1;endArrow=classic;html=1;" parent="5A1ssLU1VLZ0-FPkcArc-1" edge="1">
          <mxGeometry width="50" height="50" relative="1" as="geometry">
            <mxPoint x="50" y="84" as="sourcePoint" />
            <mxPoint x="50" y="120" as="targetPoint" />
            <Array as="points">
              <mxPoint x="90" y="84" />
              <mxPoint x="90" y="110" />
            </Array>
          </mxGeometry>
        </mxCell>
        <mxCell id="5A1ssLU1VLZ0-FPkcArc-16" value="1:&lt;br&gt;&lt;div&gt;listAllMS(state_up)&lt;/div&gt;&lt;div&gt;listAllAgents(type_routing)&lt;/div&gt;" style="edgeLabel;html=1;align=left;verticalAlign=middle;resizable=0;points=[];" parent="5A1ssLU1VLZ0-FPkcArc-14" vertex="1" connectable="0">
          <mxGeometry x="0.0343" y="1" relative="1" as="geometry">
            <mxPoint x="9" as="offset" />
          </mxGeometry>
        </mxCell>
        <mxCell id="5A1ssLU1VLZ0-FPkcArc-5" value="M2" style="shape=umlLifeline;perimeter=lifelinePerimeter;container=1;collapsible=0;recursiveResize=0;rounded=0;shadow=0;strokeWidth=1;" parent="1" vertex="1">
          <mxGeometry x="315" y="80" width="110" height="730" as="geometry" />
        </mxCell>
        <mxCell id="5A1ssLU1VLZ0-FPkcArc-6" value="" style="points=[];perimeter=orthogonalPerimeter;rounded=0;shadow=0;strokeWidth=1;" parent="5A1ssLU1VLZ0-FPkcArc-5" vertex="1">
          <mxGeometry x="52" y="280" width="10" height="400" as="geometry" />
        </mxCell>
        <mxCell id="5A1ssLU1VLZ0-FPkcArc-9" value="vCenter" style="shape=umlLifeline;perimeter=lifelinePerimeter;container=1;collapsible=0;recursiveResize=0;rounded=0;shadow=0;strokeWidth=1;" parent="1" vertex="1">
          <mxGeometry x="480" y="80" width="110" height="740" as="geometry" />
        </mxCell>
        <mxCell id="5A1ssLU1VLZ0-FPkcArc-10" value="" style="points=[];perimeter=orthogonalPerimeter;rounded=0;shadow=0;strokeWidth=1;" parent="5A1ssLU1VLZ0-FPkcArc-9" vertex="1">
          <mxGeometry x="50" y="570" width="10" height="30" as="geometry" />
        </mxCell>
        <mxCell id="5A1ssLU1VLZ0-FPkcArc-13" value="Request Agent &#xa;Rebalance fails" style="verticalAlign=bottom;endArrow=open;dashed=1;endSize=8;shadow=0;strokeWidth=1;entryX=0.5;entryY=0.595;entryDx=0;entryDy=0;entryPerimeter=0;" parent="1" edge="1">
          <mxGeometry x="0.0863" y="18" relative="1" as="geometry">
            <mxPoint x="170" y="400.0000000000001" as="targetPoint" />
            <mxPoint x="367" y="400.0000000000001" as="sourcePoint" />
            <Array as="points" />
            <mxPoint as="offset" />
          </mxGeometry>
        </mxCell>
        <mxCell id="5A1ssLU1VLZ0-FPkcArc-17" value="" style="curved=1;endArrow=classic;html=1;exitX=1;exitY=0.074;exitDx=0;exitDy=0;exitPerimeter=0;entryX=1;entryY=0.247;entryDx=0;entryDy=0;entryPerimeter=0;" parent="1" edge="1">
          <mxGeometry width="50" height="50" relative="1" as="geometry">
            <mxPoint x="170" y="213.59999999999994" as="sourcePoint" />
            <mxPoint x="170" y="246.46999999999994" as="targetPoint" />
            <Array as="points">
              <mxPoint x="205" y="213.54" />
              <mxPoint x="205" y="239.54" />
            </Array>
          </mxGeometry>
        </mxCell>
        <mxCell id="5A1ssLU1VLZ0-FPkcArc-18" value="2:&lt;br&gt;calc avLoad()" style="edgeLabel;html=1;align=left;verticalAlign=middle;resizable=0;points=[];" parent="5A1ssLU1VLZ0-FPkcArc-17" vertex="1" connectable="0">
          <mxGeometry x="0.0343" y="1" relative="1" as="geometry">
            <mxPoint x="9" as="offset" />
          </mxGeometry>
        </mxCell>
        <mxCell id="5A1ssLU1VLZ0-FPkcArc-19" value="" style="curved=1;endArrow=classic;html=1;exitX=1;exitY=0.074;exitDx=0;exitDy=0;exitPerimeter=0;entryX=1;entryY=0.247;entryDx=0;entryDy=0;entryPerimeter=0;" parent="1" edge="1">
          <mxGeometry width="50" height="50" relative="1" as="geometry">
            <mxPoint x="170" y="260.0599999999999" as="sourcePoint" />
            <mxPoint x="170" y="292.9299999999999" as="targetPoint" />
            <Array as="points">
              <mxPoint x="205" y="260" />
              <mxPoint x="205" y="286" />
            </Array>
          </mxGeometry>
        </mxCell>
        <mxCell id="5A1ssLU1VLZ0-FPkcArc-20" value="3:&lt;br&gt;list(getHostsToRebalance)" style="edgeLabel;html=1;align=left;verticalAlign=middle;resizable=0;points=[];" parent="5A1ssLU1VLZ0-FPkcArc-19" vertex="1" connectable="0">
          <mxGeometry x="0.0343" y="1" relative="1" as="geometry">
            <mxPoint x="9" as="offset" />
          </mxGeometry>
        </mxCell>
        <mxCell id="5A1ssLU1VLZ0-FPkcArc-22" value="" style="curved=1;endArrow=classic;html=1;exitX=1;exitY=0.074;exitDx=0;exitDy=0;exitPerimeter=0;entryX=1;entryY=0.247;entryDx=0;entryDy=0;entryPerimeter=0;" parent="1" edge="1">
          <mxGeometry width="50" height="50" relative="1" as="geometry">
            <mxPoint x="170" y="306.05999999999995" as="sourcePoint" />
            <mxPoint x="170" y="338.92999999999984" as="targetPoint" />
            <Array as="points">
              <mxPoint x="205" y="306" />
              <mxPoint x="205" y="332" />
            </Array>
          </mxGeometry>
        </mxCell>
        <mxCell id="5A1ssLU1VLZ0-FPkcArc-23" value="4:&lt;br&gt;HostInUsebyAnyone?" style="edgeLabel;html=1;align=left;verticalAlign=middle;resizable=0;points=[];" parent="5A1ssLU1VLZ0-FPkcArc-22" vertex="1" connectable="0">
          <mxGeometry x="0.0343" y="1" relative="1" as="geometry">
            <mxPoint x="9" as="offset" />
          </mxGeometry>
        </mxCell>
        <mxCell id="5A1ssLU1VLZ0-FPkcArc-24" value="" style="endArrow=classic;html=1;" parent="1" edge="1">
          <mxGeometry width="50" height="50" relative="1" as="geometry">
            <mxPoint x="170" y="340" as="sourcePoint" />
            <mxPoint x="700" y="340" as="targetPoint" />
          </mxGeometry>
        </mxCell>
        <mxCell id="5A1ssLU1VLZ0-FPkcArc-28" value="5: update table op_host_transfer&lt;br&gt;(hostId, initialOwner, futureOwner)" style="edgeLabel;html=1;align=center;verticalAlign=middle;resizable=0;points=[];" parent="5A1ssLU1VLZ0-FPkcArc-24" vertex="1" connectable="0">
          <mxGeometry x="0.2151" y="-1" relative="1" as="geometry">
            <mxPoint x="98" y="-1" as="offset" />
          </mxGeometry>
        </mxCell>
        <mxCell id="5A1ssLU1VLZ0-FPkcArc-25" value="DB" style="shape=umlLifeline;perimeter=lifelinePerimeter;container=1;collapsible=0;recursiveResize=0;rounded=0;shadow=0;strokeWidth=1;" parent="1" vertex="1">
          <mxGeometry x="650" y="80" width="110" height="730" as="geometry" />
        </mxCell>
        <mxCell id="5A1ssLU1VLZ0-FPkcArc-26" value="" style="points=[];perimeter=orthogonalPerimeter;rounded=0;shadow=0;strokeWidth=1;" parent="5A1ssLU1VLZ0-FPkcArc-25" vertex="1">
          <mxGeometry x="50" y="260" width="10" height="30" as="geometry" />
        </mxCell>
        <mxCell id="QSFnijiLsQs1CvgIc9NO-3" value="" style="points=[];perimeter=orthogonalPerimeter;rounded=0;shadow=0;strokeWidth=1;" parent="5A1ssLU1VLZ0-FPkcArc-25" vertex="1">
          <mxGeometry x="49" y="626" width="10" height="30" as="geometry" />
        </mxCell>
        <mxCell id="5A1ssLU1VLZ0-FPkcArc-29" value="" style="endArrow=classic;html=1;" parent="1" target="5A1ssLU1VLZ0-FPkcArc-6" edge="1">
          <mxGeometry width="50" height="50" relative="1" as="geometry">
            <mxPoint x="170" y="370" as="sourcePoint" />
            <mxPoint x="520" y="360" as="targetPoint" />
          </mxGeometry>
        </mxCell>
        <mxCell id="5A1ssLU1VLZ0-FPkcArc-30" value="6: sendRebalance command &lt;br&gt;to current Host Owner" style="edgeLabel;html=1;align=center;verticalAlign=middle;resizable=0;points=[];" parent="5A1ssLU1VLZ0-FPkcArc-29" vertex="1" connectable="0">
          <mxGeometry x="0.2151" y="-1" relative="1" as="geometry">
            <mxPoint x="-20" y="-1" as="offset" />
          </mxGeometry>
        </mxCell>
        <mxCell id="5A1ssLU1VLZ0-FPkcArc-31" value="" style="curved=1;endArrow=classic;html=1;exitX=1;exitY=0.074;exitDx=0;exitDy=0;exitPerimeter=0;entryX=1;entryY=0.247;entryDx=0;entryDy=0;entryPerimeter=0;" parent="1" edge="1">
          <mxGeometry width="50" height="50" relative="1" as="geometry">
            <mxPoint x="370" y="380.05999999999995" as="sourcePoint" />
            <mxPoint x="370" y="412.92999999999984" as="targetPoint" />
            <Array as="points">
              <mxPoint x="405" y="380" />
              <mxPoint x="405" y="406" />
            </Array>
          </mxGeometry>
        </mxCell>
        <mxCell id="5A1ssLU1VLZ0-FPkcArc-32" value="7: receive &lt;br&gt;Rebalance request" style="edgeLabel;html=1;align=left;verticalAlign=middle;resizable=0;points=[];" parent="5A1ssLU1VLZ0-FPkcArc-31" vertex="1" connectable="0">
          <mxGeometry x="0.0343" y="1" relative="1" as="geometry">
            <mxPoint x="9" as="offset" />
          </mxGeometry>
        </mxCell>
        <mxCell id="5A1ssLU1VLZ0-FPkcArc-35" value="" style="curved=1;endArrow=classic;html=1;exitX=1;exitY=0.074;exitDx=0;exitDy=0;exitPerimeter=0;entryX=1;entryY=0.247;entryDx=0;entryDy=0;entryPerimeter=0;" parent="1" edge="1">
          <mxGeometry width="50" height="50" relative="1" as="geometry">
            <mxPoint x="370" y="450.05999999999995" as="sourcePoint" />
            <mxPoint x="370" y="482.92999999999984" as="targetPoint" />
            <Array as="points">
              <mxPoint x="405" y="450" />
              <mxPoint x="405" y="476" />
            </Array>
          </mxGeometry>
        </mxCell>
        <mxCell id="5A1ssLU1VLZ0-FPkcArc-36" value="8: Add host in a SET _agent&lt;br&gt;ToTransferIds" style="edgeLabel;html=1;align=left;verticalAlign=middle;resizable=0;points=[];" parent="5A1ssLU1VLZ0-FPkcArc-35" vertex="1" connectable="0">
          <mxGeometry x="0.0343" y="1" relative="1" as="geometry">
            <mxPoint x="9" as="offset" />
          </mxGeometry>
        </mxCell>
        <mxCell id="5A1ssLU1VLZ0-FPkcArc-39" value="" style="points=[];perimeter=orthogonalPerimeter;rounded=0;shadow=0;strokeWidth=1;" parent="1" vertex="1">
          <mxGeometry x="370" y="496" width="10" height="40" as="geometry" />
        </mxCell>
        <mxCell id="5A1ssLU1VLZ0-FPkcArc-37" value="" style="curved=1;endArrow=classic;html=1;exitX=1;exitY=0.074;exitDx=0;exitDy=0;exitPerimeter=0;entryX=1;entryY=0.247;entryDx=0;entryDy=0;entryPerimeter=0;" parent="1" edge="1">
          <mxGeometry width="50" height="50" relative="1" as="geometry">
            <mxPoint x="370" y="560.06" as="sourcePoint" />
            <mxPoint x="370" y="592.9299999999998" as="targetPoint" />
            <Array as="points">
              <mxPoint x="405" y="560" />
              <mxPoint x="405" y="586" />
            </Array>
          </mxGeometry>
        </mxCell>
        <mxCell id="5A1ssLU1VLZ0-FPkcArc-38" value="10: check task timeout&amp;nbsp;&lt;br&gt;or, futureOwner &lt;br&gt;isActive" style="edgeLabel;html=1;align=left;verticalAlign=middle;resizable=0;points=[];" parent="5A1ssLU1VLZ0-FPkcArc-37" vertex="1" connectable="0">
          <mxGeometry x="0.0343" y="1" relative="1" as="geometry">
            <mxPoint x="9" as="offset" />
          </mxGeometry>
        </mxCell>
        <mxCell id="5A1ssLU1VLZ0-FPkcArc-40" value="" style="curved=1;endArrow=classic;html=1;exitX=1;exitY=0.074;exitDx=0;exitDy=0;exitPerimeter=0;entryX=1;entryY=0.247;entryDx=0;entryDy=0;entryPerimeter=0;" parent="1" edge="1">
          <mxGeometry width="50" height="50" relative="1" as="geometry">
            <mxPoint x="376" y="499.05999999999995" as="sourcePoint" />
            <mxPoint x="376" y="531.9299999999998" as="targetPoint" />
            <Array as="points">
              <mxPoint x="411" y="499" />
              <mxPoint x="411" y="525" />
            </Array>
          </mxGeometry>
        </mxCell>
        <mxCell id="5A1ssLU1VLZ0-FPkcArc-41" value="9: getTrasnferScanTask" style="edgeLabel;html=1;align=left;verticalAlign=middle;resizable=0;points=[];" parent="5A1ssLU1VLZ0-FPkcArc-40" vertex="1" connectable="0">
          <mxGeometry x="0.0343" y="1" relative="1" as="geometry">
            <mxPoint x="9" as="offset" />
          </mxGeometry>
        </mxCell>
        <mxCell id="5A1ssLU1VLZ0-FPkcArc-46" value="" style="endArrow=classic;html=1;" parent="1" edge="1">
          <mxGeometry width="50" height="50" relative="1" as="geometry">
            <mxPoint x="370" y="623" as="sourcePoint" />
            <mxPoint x="170" y="623" as="targetPoint" />
          </mxGeometry>
        </mxCell>
        <mxCell id="5A1ssLU1VLZ0-FPkcArc-47" value="11: send RebalanceHost &lt;br&gt;command" style="edgeLabel;html=1;align=center;verticalAlign=middle;resizable=0;points=[];" parent="5A1ssLU1VLZ0-FPkcArc-46" vertex="1" connectable="0">
          <mxGeometry x="0.2151" y="-1" relative="1" as="geometry">
            <mxPoint x="16" y="-1" as="offset" />
          </mxGeometry>
        </mxCell>
        <mxCell id="5A1ssLU1VLZ0-FPkcArc-48" value="" style="endArrow=classic;html=1;entryX=1;entryY=0;entryDx=0;entryDy=0;entryPerimeter=0;" parent="1" target="5A1ssLU1VLZ0-FPkcArc-10" edge="1">
          <mxGeometry width="50" height="50" relative="1" as="geometry">
            <mxPoint x="174" y="650" as="sourcePoint" />
            <mxPoint x="180" y="633" as="targetPoint" />
          </mxGeometry>
        </mxCell>
        <mxCell id="5A1ssLU1VLZ0-FPkcArc-49" value="12: connects vCenter" style="edgeLabel;html=1;align=center;verticalAlign=middle;resizable=0;points=[];" parent="5A1ssLU1VLZ0-FPkcArc-48" vertex="1" connectable="0">
          <mxGeometry x="0.2151" y="-1" relative="1" as="geometry">
            <mxPoint x="-146" y="-1" as="offset" />
          </mxGeometry>
        </mxCell>
        <mxCell id="5A1ssLU1VLZ0-FPkcArc-51" value="" style="curved=1;endArrow=classic;html=1;exitX=1;exitY=0.074;exitDx=0;exitDy=0;exitPerimeter=0;entryX=1;entryY=0.247;entryDx=0;entryDy=0;entryPerimeter=0;" parent="1" edge="1">
          <mxGeometry width="50" height="50" relative="1" as="geometry">
            <mxPoint x="170" y="670.06" as="sourcePoint" />
            <mxPoint x="170" y="702.9299999999998" as="targetPoint" />
            <Array as="points">
              <mxPoint x="205" y="670" />
              <mxPoint x="205" y="696" />
            </Array>
          </mxGeometry>
        </mxCell>
        <mxCell id="5A1ssLU1VLZ0-FPkcArc-52" value="13: connect host &amp;amp; &lt;br&gt;send modify storage pool&lt;br&gt;command" style="edgeLabel;html=1;align=left;verticalAlign=middle;resizable=0;points=[];" parent="5A1ssLU1VLZ0-FPkcArc-51" vertex="1" connectable="0">
          <mxGeometry x="0.0343" y="1" relative="1" as="geometry">
            <mxPoint x="9" as="offset" />
          </mxGeometry>
        </mxCell>
        <mxCell id="5A1ssLU1VLZ0-FPkcArc-53" value="" style="endArrow=classic;html=1;exitX=0.5;exitY=0.881;exitDx=0;exitDy=0;exitPerimeter=0;" parent="1" edge="1">
          <mxGeometry width="50" height="50" relative="1" as="geometry">
            <mxPoint x="170" y="747.22" as="sourcePoint" />
            <mxPoint x="369.5" y="747.22" as="targetPoint" />
          </mxGeometry>
        </mxCell>
        <mxCell id="5A1ssLU1VLZ0-FPkcArc-54" value="14: Finish Rebalancing" style="edgeLabel;html=1;align=center;verticalAlign=middle;resizable=0;points=[];" parent="5A1ssLU1VLZ0-FPkcArc-53" vertex="1" connectable="0">
          <mxGeometry x="0.2151" y="-1" relative="1" as="geometry">
            <mxPoint x="-31" y="-1" as="offset" />
          </mxGeometry>
        </mxCell>
        <mxCell id="5A1ssLU1VLZ0-FPkcArc-57" value="" style="points=[];perimeter=orthogonalPerimeter;rounded=0;shadow=0;strokeWidth=1;" parent="1" vertex="1">
          <mxGeometry x="699" y="434" width="10" height="30" as="geometry" />
        </mxCell>
        <mxCell id="5A1ssLU1VLZ0-FPkcArc-58" value="" style="points=[];perimeter=orthogonalPerimeter;rounded=0;shadow=0;strokeWidth=1;" parent="1" vertex="1">
          <mxGeometry x="700" y="613" width="10" height="30" as="geometry" />
        </mxCell>
        <mxCell id="5A1ssLU1VLZ0-FPkcArc-42" value="" style="endArrow=classic;html=1;exitX=0.9;exitY=0.633;exitDx=0;exitDy=0;exitPerimeter=0;" parent="1" source="5A1ssLU1VLZ0-FPkcArc-6" target="5A1ssLU1VLZ0-FPkcArc-25" edge="1">
          <mxGeometry width="50" height="50" relative="1" as="geometry">
            <mxPoint x="180" y="350" as="sourcePoint" />
            <mxPoint x="710" y="350" as="targetPoint" />
          </mxGeometry>
        </mxCell>
        <mxCell id="5A1ssLU1VLZ0-FPkcArc-43" value="Update host with status&lt;br&gt;&quot;Rebalancing&quot;" style="edgeLabel;html=1;align=center;verticalAlign=middle;resizable=0;points=[];" parent="5A1ssLU1VLZ0-FPkcArc-42" vertex="1" connectable="0">
          <mxGeometry x="0.2151" y="-1" relative="1" as="geometry">
            <mxPoint x="-6" y="-1" as="offset" />
          </mxGeometry>
        </mxCell>
        <mxCell id="5A1ssLU1VLZ0-FPkcArc-33" value="Request Agent &#xa;Rebalance fails" style="verticalAlign=bottom;endArrow=open;dashed=1;endSize=8;shadow=0;strokeWidth=1;entryX=0.5;entryY=0.485;entryDx=0;entryDy=0;entryPerimeter=0;" parent="1" source="5A1ssLU1VLZ0-FPkcArc-2" target="5A1ssLU1VLZ0-FPkcArc-25" edge="1">
          <mxGeometry x="-0.7133" y="-17" relative="1" as="geometry">
            <mxPoint x="700" y="450" as="targetPoint" />
            <mxPoint x="377" y="410" as="sourcePoint" />
            <Array as="points">
              <mxPoint x="270" y="433" />
              <mxPoint x="350" y="433" />
              <mxPoint x="490" y="433" />
            </Array>
            <mxPoint as="offset" />
          </mxGeometry>
        </mxCell>
        <mxCell id="QSFnijiLsQs1CvgIc9NO-1" value="" style="endArrow=classic;html=1;entryX=0.491;entryY=0.853;entryDx=0;entryDy=0;entryPerimeter=0;" parent="1" edge="1">
          <mxGeometry width="50" height="50" relative="1" as="geometry">
            <mxPoint x="170" y="704" as="sourcePoint" />
            <mxPoint x="704.01" y="706.69" as="targetPoint" />
          </mxGeometry>
        </mxCell>
        <mxCell id="QSFnijiLsQs1CvgIc9NO-4" value="14: Storage pool and &lt;br&gt;details updates" style="edgeLabel;html=1;align=center;verticalAlign=middle;resizable=0;points=[];" parent="QSFnijiLsQs1CvgIc9NO-1" vertex="1" connectable="0">
          <mxGeometry x="0.6591" y="2" relative="1" as="geometry">
            <mxPoint as="offset" />
          </mxGeometry>
        </mxCell>
        <mxCell id="QSFnijiLsQs1CvgIc9NO-5" value="" style="points=[];perimeter=orthogonalPerimeter;rounded=0;shadow=0;strokeWidth=1;" parent="1" vertex="1">
          <mxGeometry x="160" y="340" width="10" height="380" as="geometry" />
        </mxCell>
        <mxCell id="QSFnijiLsQs1CvgIc9NO-6" value="" style="points=[];perimeter=orthogonalPerimeter;rounded=0;shadow=0;strokeWidth=1;" parent="1" vertex="1">
          <mxGeometry x="165" y="670" width="10" height="30" as="geometry" />
        </mxCell>
        <mxCell id="PzGKEiki0Doc0siu71Vs-1" value="&lt;br&gt;" style="edgeLabel;html=1;align=center;verticalAlign=middle;resizable=0;points=[];" vertex="1" connectable="0" parent="1">
          <mxGeometry x="610" y="340" as="geometry">
            <mxPoint x="4" y="76" as="offset" />
          </mxGeometry>
        </mxCell>
        <mxCell id="PzGKEiki0Doc0siu71Vs-2" value="&lt;span style=&quot;color: rgb(0, 0, 0); font-family: helvetica; font-size: 11px; font-style: normal; font-weight: 400; letter-spacing: normal; text-align: center; text-indent: 0px; text-transform: none; word-spacing: 0px; background-color: rgb(255, 255, 255); display: inline; float: none;&quot;&gt;Delete entry from table op_host_transfer&lt;/span&gt;" style="text;whiteSpace=wrap;html=1;" vertex="1" parent="1">
          <mxGeometry x="579" y="395" width="120" height="30" as="geometry" />
        </mxCell>
        <mxCell id="PzGKEiki0Doc0siu71Vs-4" value="" style="points=[];perimeter=orthogonalPerimeter;rounded=0;shadow=0;strokeWidth=1;" vertex="1" parent="1">
          <mxGeometry x="365" y="560" width="10" height="50" as="geometry" />
        </mxCell>
        <mxCell id="PzGKEiki0Doc0siu71Vs-7" value="" style="curved=1;endArrow=classic;html=1;exitX=1;exitY=0.074;exitDx=0;exitDy=0;exitPerimeter=0;entryX=1;entryY=0.247;entryDx=0;entryDy=0;entryPerimeter=0;" edge="1" parent="1">
          <mxGeometry width="50" height="50" relative="1" as="geometry">
            <mxPoint x="380" y="570.06" as="sourcePoint" />
            <mxPoint x="380" y="602.9299999999998" as="targetPoint" />
            <Array as="points">
              <mxPoint x="415" y="570" />
              <mxPoint x="415" y="596" />
            </Array>
          </mxGeometry>
        </mxCell>
        <mxCell id="PzGKEiki0Doc0siu71Vs-9" value="10.1: timeout(true), &lt;br&gt;remove&amp;nbsp;host from &lt;br&gt;agentToTransferIds&amp;nbsp;" style="edgeLabel;html=1;align=left;verticalAlign=middle;resizable=0;points=[];" vertex="1" connectable="0" parent="1">
          <mxGeometry x="390" y="619.9999485714663" as="geometry" />
        </mxCell>
      </root>
    </mxGraphModel>
  </diagram>
  <diagram id="81wG0u43Nt1SA9oSTCDu" name="VMWare_ContextInit">
    <mxGraphModel dx="782" dy="468" grid="1" gridSize="10" guides="1" tooltips="1" connect="1" arrows="1" fold="1" page="1" pageScale="1" pageWidth="1400" pageHeight="850" math="0" shadow="0">
      <root>
        <mxCell id="Qm06ELZwk0Wj_IMWL63B-0" />
        <mxCell id="Qm06ELZwk0Wj_IMWL63B-1" parent="Qm06ELZwk0Wj_IMWL63B-0" />
        <mxCell id="Qm06ELZwk0Wj_IMWL63B-2" value="M1" style="shape=umlLifeline;perimeter=lifelinePerimeter;container=1;collapsible=0;recursiveResize=0;rounded=0;shadow=0;strokeWidth=1;" parent="Qm06ELZwk0Wj_IMWL63B-1" vertex="1">
          <mxGeometry x="120" y="80" width="100" height="750" as="geometry" />
        </mxCell>
        <mxCell id="Qm06ELZwk0Wj_IMWL63B-3" value="" style="points=[];perimeter=orthogonalPerimeter;rounded=0;shadow=0;strokeWidth=1;" parent="Qm06ELZwk0Wj_IMWL63B-2" vertex="1">
          <mxGeometry x="45" y="70" width="10" height="620" as="geometry" />
        </mxCell>
        <mxCell id="Qm06ELZwk0Wj_IMWL63B-4" value="Joined/Restarted" style="verticalAlign=bottom;startArrow=oval;endArrow=block;startSize=8;shadow=0;strokeWidth=1;" parent="Qm06ELZwk0Wj_IMWL63B-2" target="Qm06ELZwk0Wj_IMWL63B-3" edge="1">
          <mxGeometry relative="1" as="geometry">
            <mxPoint x="-50" y="70" as="sourcePoint" />
          </mxGeometry>
        </mxCell>
        <mxCell id="Qm06ELZwk0Wj_IMWL63B-5" value="" style="curved=1;endArrow=classic;html=1;" parent="Qm06ELZwk0Wj_IMWL63B-2" edge="1">
          <mxGeometry width="50" height="50" relative="1" as="geometry">
            <mxPoint x="50" y="84" as="sourcePoint" />
            <mxPoint x="50" y="120" as="targetPoint" />
            <Array as="points">
              <mxPoint x="90" y="84" />
              <mxPoint x="90" y="110" />
            </Array>
          </mxGeometry>
        </mxCell>
        <mxCell id="Qm06ELZwk0Wj_IMWL63B-6" value="1:&lt;br&gt;&lt;div&gt;listAllMS(state_up)&lt;/div&gt;&lt;div&gt;listAllAgents(type_routing)&lt;/div&gt;" style="edgeLabel;html=1;align=left;verticalAlign=middle;resizable=0;points=[];" parent="Qm06ELZwk0Wj_IMWL63B-5" vertex="1" connectable="0">
          <mxGeometry x="0.0343" y="1" relative="1" as="geometry">
            <mxPoint x="9" as="offset" />
          </mxGeometry>
        </mxCell>
        <mxCell id="Qm06ELZwk0Wj_IMWL63B-7" value="M2" style="shape=umlLifeline;perimeter=lifelinePerimeter;container=1;collapsible=0;recursiveResize=0;rounded=0;shadow=0;strokeWidth=1;" parent="Qm06ELZwk0Wj_IMWL63B-1" vertex="1">
          <mxGeometry x="315" y="80" width="110" height="730" as="geometry" />
        </mxCell>
        <mxCell id="Qm06ELZwk0Wj_IMWL63B-8" value="" style="points=[];perimeter=orthogonalPerimeter;rounded=0;shadow=0;strokeWidth=1;" parent="Qm06ELZwk0Wj_IMWL63B-7" vertex="1">
          <mxGeometry x="52" y="280" width="10" height="400" as="geometry" />
        </mxCell>
        <mxCell id="Qm06ELZwk0Wj_IMWL63B-9" value="vCenter" style="shape=umlLifeline;perimeter=lifelinePerimeter;container=1;collapsible=0;recursiveResize=0;rounded=0;shadow=0;strokeWidth=1;" parent="Qm06ELZwk0Wj_IMWL63B-1" vertex="1">
          <mxGeometry x="480" y="80" width="110" height="740" as="geometry" />
        </mxCell>
        <mxCell id="Qm06ELZwk0Wj_IMWL63B-10" value="" style="points=[];perimeter=orthogonalPerimeter;rounded=0;shadow=0;strokeWidth=1;fillColor=#FF0000;" parent="Qm06ELZwk0Wj_IMWL63B-9" vertex="1">
          <mxGeometry x="50" y="570" width="10" height="30" as="geometry" />
        </mxCell>
        <mxCell id="Qm06ELZwk0Wj_IMWL63B-11" value="Request Agent &#xa;Rebalance fails" style="verticalAlign=bottom;endArrow=open;dashed=1;endSize=8;shadow=0;strokeWidth=1;entryX=0.5;entryY=0.595;entryDx=0;entryDy=0;entryPerimeter=0;" parent="Qm06ELZwk0Wj_IMWL63B-1" edge="1">
          <mxGeometry x="0.0863" y="18" relative="1" as="geometry">
            <mxPoint x="170" y="400.0000000000001" as="targetPoint" />
            <mxPoint x="367" y="400.0000000000001" as="sourcePoint" />
            <Array as="points" />
            <mxPoint as="offset" />
          </mxGeometry>
        </mxCell>
        <mxCell id="Qm06ELZwk0Wj_IMWL63B-12" value="" style="curved=1;endArrow=classic;html=1;exitX=1;exitY=0.074;exitDx=0;exitDy=0;exitPerimeter=0;entryX=1;entryY=0.247;entryDx=0;entryDy=0;entryPerimeter=0;" parent="Qm06ELZwk0Wj_IMWL63B-1" edge="1">
          <mxGeometry width="50" height="50" relative="1" as="geometry">
            <mxPoint x="170" y="213.5999999999999" as="sourcePoint" />
            <mxPoint x="170" y="246.4699999999999" as="targetPoint" />
            <Array as="points">
              <mxPoint x="205" y="213.54" />
              <mxPoint x="205" y="239.54" />
            </Array>
          </mxGeometry>
        </mxCell>
        <mxCell id="Qm06ELZwk0Wj_IMWL63B-13" value="2:&lt;br&gt;calc avLoad()" style="edgeLabel;html=1;align=left;verticalAlign=middle;resizable=0;points=[];" parent="Qm06ELZwk0Wj_IMWL63B-12" vertex="1" connectable="0">
          <mxGeometry x="0.0343" y="1" relative="1" as="geometry">
            <mxPoint x="9" as="offset" />
          </mxGeometry>
        </mxCell>
        <mxCell id="Qm06ELZwk0Wj_IMWL63B-14" value="" style="curved=1;endArrow=classic;html=1;exitX=1;exitY=0.074;exitDx=0;exitDy=0;exitPerimeter=0;entryX=1;entryY=0.247;entryDx=0;entryDy=0;entryPerimeter=0;" parent="Qm06ELZwk0Wj_IMWL63B-1" edge="1">
          <mxGeometry width="50" height="50" relative="1" as="geometry">
            <mxPoint x="170" y="260.05999999999995" as="sourcePoint" />
            <mxPoint x="170" y="292.92999999999984" as="targetPoint" />
            <Array as="points">
              <mxPoint x="205" y="260" />
              <mxPoint x="205" y="286" />
            </Array>
          </mxGeometry>
        </mxCell>
        <mxCell id="Qm06ELZwk0Wj_IMWL63B-15" value="3:&lt;br&gt;list(getHostsToRebalance)" style="edgeLabel;html=1;align=left;verticalAlign=middle;resizable=0;points=[];" parent="Qm06ELZwk0Wj_IMWL63B-14" vertex="1" connectable="0">
          <mxGeometry x="0.0343" y="1" relative="1" as="geometry">
            <mxPoint x="9" as="offset" />
          </mxGeometry>
        </mxCell>
        <mxCell id="Qm06ELZwk0Wj_IMWL63B-16" value="" style="curved=1;endArrow=classic;html=1;exitX=1;exitY=0.074;exitDx=0;exitDy=0;exitPerimeter=0;entryX=1;entryY=0.247;entryDx=0;entryDy=0;entryPerimeter=0;" parent="Qm06ELZwk0Wj_IMWL63B-1" edge="1">
          <mxGeometry width="50" height="50" relative="1" as="geometry">
            <mxPoint x="170" y="306.05999999999995" as="sourcePoint" />
            <mxPoint x="170" y="338.92999999999984" as="targetPoint" />
            <Array as="points">
              <mxPoint x="205" y="306" />
              <mxPoint x="205" y="332" />
            </Array>
          </mxGeometry>
        </mxCell>
        <mxCell id="Qm06ELZwk0Wj_IMWL63B-17" value="4:&lt;br&gt;HostInUsebyAnyone?" style="edgeLabel;html=1;align=left;verticalAlign=middle;resizable=0;points=[];" parent="Qm06ELZwk0Wj_IMWL63B-16" vertex="1" connectable="0">
          <mxGeometry x="0.0343" y="1" relative="1" as="geometry">
            <mxPoint x="9" as="offset" />
          </mxGeometry>
        </mxCell>
        <mxCell id="Qm06ELZwk0Wj_IMWL63B-18" value="" style="endArrow=classic;html=1;" parent="Qm06ELZwk0Wj_IMWL63B-1" edge="1">
          <mxGeometry width="50" height="50" relative="1" as="geometry">
            <mxPoint x="170" y="340" as="sourcePoint" />
            <mxPoint x="700" y="340" as="targetPoint" />
          </mxGeometry>
        </mxCell>
        <mxCell id="Qm06ELZwk0Wj_IMWL63B-19" value="5: update table op_host_transfer&lt;br&gt;(hostId, initialOwner, futureOwner)" style="edgeLabel;html=1;align=center;verticalAlign=middle;resizable=0;points=[];" parent="Qm06ELZwk0Wj_IMWL63B-18" vertex="1" connectable="0">
          <mxGeometry x="0.2151" y="-1" relative="1" as="geometry">
            <mxPoint x="98" y="-1" as="offset" />
          </mxGeometry>
        </mxCell>
        <mxCell id="Qm06ELZwk0Wj_IMWL63B-20" value="DB" style="shape=umlLifeline;perimeter=lifelinePerimeter;container=1;collapsible=0;recursiveResize=0;rounded=0;shadow=0;strokeWidth=1;" parent="Qm06ELZwk0Wj_IMWL63B-1" vertex="1">
          <mxGeometry x="650" y="80" width="110" height="730" as="geometry" />
        </mxCell>
        <mxCell id="Qm06ELZwk0Wj_IMWL63B-21" value="" style="points=[];perimeter=orthogonalPerimeter;rounded=0;shadow=0;strokeWidth=1;" parent="Qm06ELZwk0Wj_IMWL63B-20" vertex="1">
          <mxGeometry x="50" y="260" width="10" height="30" as="geometry" />
        </mxCell>
        <mxCell id="Qm06ELZwk0Wj_IMWL63B-22" value="" style="points=[];perimeter=orthogonalPerimeter;rounded=0;shadow=0;strokeWidth=1;" parent="Qm06ELZwk0Wj_IMWL63B-20" vertex="1">
          <mxGeometry x="49" y="626" width="10" height="30" as="geometry" />
        </mxCell>
        <mxCell id="Qm06ELZwk0Wj_IMWL63B-23" value="" style="endArrow=classic;html=1;" parent="Qm06ELZwk0Wj_IMWL63B-1" target="Qm06ELZwk0Wj_IMWL63B-8" edge="1">
          <mxGeometry width="50" height="50" relative="1" as="geometry">
            <mxPoint x="170" y="370" as="sourcePoint" />
            <mxPoint x="520" y="360" as="targetPoint" />
          </mxGeometry>
        </mxCell>
        <mxCell id="Qm06ELZwk0Wj_IMWL63B-24" value="6: sendRebalance command &lt;br&gt;to current Host Owner" style="edgeLabel;html=1;align=center;verticalAlign=middle;resizable=0;points=[];" parent="Qm06ELZwk0Wj_IMWL63B-23" vertex="1" connectable="0">
          <mxGeometry x="0.2151" y="-1" relative="1" as="geometry">
            <mxPoint x="-20" y="-1" as="offset" />
          </mxGeometry>
        </mxCell>
        <mxCell id="Qm06ELZwk0Wj_IMWL63B-25" value="" style="curved=1;endArrow=classic;html=1;exitX=1;exitY=0.074;exitDx=0;exitDy=0;exitPerimeter=0;entryX=1;entryY=0.247;entryDx=0;entryDy=0;entryPerimeter=0;" parent="Qm06ELZwk0Wj_IMWL63B-1" edge="1">
          <mxGeometry width="50" height="50" relative="1" as="geometry">
            <mxPoint x="370" y="380.05999999999995" as="sourcePoint" />
            <mxPoint x="370" y="412.92999999999984" as="targetPoint" />
            <Array as="points">
              <mxPoint x="405" y="380" />
              <mxPoint x="405" y="406" />
            </Array>
          </mxGeometry>
        </mxCell>
        <mxCell id="Qm06ELZwk0Wj_IMWL63B-26" value="7: receive &lt;br&gt;Rebalance request" style="edgeLabel;html=1;align=left;verticalAlign=middle;resizable=0;points=[];" parent="Qm06ELZwk0Wj_IMWL63B-25" vertex="1" connectable="0">
          <mxGeometry x="0.0343" y="1" relative="1" as="geometry">
            <mxPoint x="9" as="offset" />
          </mxGeometry>
        </mxCell>
        <mxCell id="Qm06ELZwk0Wj_IMWL63B-27" value="" style="curved=1;endArrow=classic;html=1;exitX=1;exitY=0.074;exitDx=0;exitDy=0;exitPerimeter=0;entryX=1;entryY=0.247;entryDx=0;entryDy=0;entryPerimeter=0;" parent="Qm06ELZwk0Wj_IMWL63B-1" edge="1">
          <mxGeometry width="50" height="50" relative="1" as="geometry">
            <mxPoint x="370" y="450.05999999999995" as="sourcePoint" />
            <mxPoint x="370" y="482.92999999999984" as="targetPoint" />
            <Array as="points">
              <mxPoint x="405" y="450" />
              <mxPoint x="405" y="476" />
            </Array>
          </mxGeometry>
        </mxCell>
        <mxCell id="Qm06ELZwk0Wj_IMWL63B-28" value="8: Add host in agent&lt;br&gt;ToTransferIds" style="edgeLabel;html=1;align=left;verticalAlign=middle;resizable=0;points=[];" parent="Qm06ELZwk0Wj_IMWL63B-27" vertex="1" connectable="0">
          <mxGeometry x="0.0343" y="1" relative="1" as="geometry">
            <mxPoint x="9" as="offset" />
          </mxGeometry>
        </mxCell>
        <mxCell id="Qm06ELZwk0Wj_IMWL63B-29" value="" style="points=[];perimeter=orthogonalPerimeter;rounded=0;shadow=0;strokeWidth=1;" parent="Qm06ELZwk0Wj_IMWL63B-1" vertex="1">
          <mxGeometry x="370" y="496" width="10" height="40" as="geometry" />
        </mxCell>
        <mxCell id="Qm06ELZwk0Wj_IMWL63B-30" value="" style="curved=1;endArrow=classic;html=1;exitX=1;exitY=0.074;exitDx=0;exitDy=0;exitPerimeter=0;entryX=1;entryY=0.247;entryDx=0;entryDy=0;entryPerimeter=0;" parent="Qm06ELZwk0Wj_IMWL63B-1" edge="1">
          <mxGeometry width="50" height="50" relative="1" as="geometry">
            <mxPoint x="370" y="560.06" as="sourcePoint" />
            <mxPoint x="370" y="592.9299999999998" as="targetPoint" />
            <Array as="points">
              <mxPoint x="405" y="560" />
              <mxPoint x="405" y="586" />
            </Array>
          </mxGeometry>
        </mxCell>
        <mxCell id="Qm06ELZwk0Wj_IMWL63B-31" value="10: check task timeout" style="edgeLabel;html=1;align=left;verticalAlign=middle;resizable=0;points=[];" parent="Qm06ELZwk0Wj_IMWL63B-30" vertex="1" connectable="0">
          <mxGeometry x="0.0343" y="1" relative="1" as="geometry">
            <mxPoint x="9" as="offset" />
          </mxGeometry>
        </mxCell>
        <mxCell id="Qm06ELZwk0Wj_IMWL63B-32" value="" style="curved=1;endArrow=classic;html=1;exitX=1;exitY=0.074;exitDx=0;exitDy=0;exitPerimeter=0;entryX=1;entryY=0.247;entryDx=0;entryDy=0;entryPerimeter=0;" parent="Qm06ELZwk0Wj_IMWL63B-1" edge="1">
          <mxGeometry width="50" height="50" relative="1" as="geometry">
            <mxPoint x="376" y="499.05999999999995" as="sourcePoint" />
            <mxPoint x="376" y="531.9299999999998" as="targetPoint" />
            <Array as="points">
              <mxPoint x="411" y="499" />
              <mxPoint x="411" y="525" />
            </Array>
          </mxGeometry>
        </mxCell>
        <mxCell id="Qm06ELZwk0Wj_IMWL63B-33" value="9: getTrasnferScanTask" style="edgeLabel;html=1;align=left;verticalAlign=middle;resizable=0;points=[];" parent="Qm06ELZwk0Wj_IMWL63B-32" vertex="1" connectable="0">
          <mxGeometry x="0.0343" y="1" relative="1" as="geometry">
            <mxPoint x="9" as="offset" />
          </mxGeometry>
        </mxCell>
        <mxCell id="Qm06ELZwk0Wj_IMWL63B-34" value="" style="endArrow=classic;html=1;" parent="Qm06ELZwk0Wj_IMWL63B-1" edge="1">
          <mxGeometry width="50" height="50" relative="1" as="geometry">
            <mxPoint x="370" y="623" as="sourcePoint" />
            <mxPoint x="170" y="623" as="targetPoint" />
          </mxGeometry>
        </mxCell>
        <mxCell id="Qm06ELZwk0Wj_IMWL63B-35" value="11: send RebalanceHost &lt;br&gt;command" style="edgeLabel;html=1;align=center;verticalAlign=middle;resizable=0;points=[];" parent="Qm06ELZwk0Wj_IMWL63B-34" vertex="1" connectable="0">
          <mxGeometry x="0.2151" y="-1" relative="1" as="geometry">
            <mxPoint x="16" y="-1" as="offset" />
          </mxGeometry>
        </mxCell>
        <mxCell id="Qm06ELZwk0Wj_IMWL63B-36" value="" style="endArrow=classic;html=1;entryX=1;entryY=0;entryDx=0;entryDy=0;entryPerimeter=0;" parent="Qm06ELZwk0Wj_IMWL63B-1" target="Qm06ELZwk0Wj_IMWL63B-10" edge="1">
          <mxGeometry width="50" height="50" relative="1" as="geometry">
            <mxPoint x="174" y="650" as="sourcePoint" />
            <mxPoint x="180" y="633" as="targetPoint" />
          </mxGeometry>
        </mxCell>
        <mxCell id="Qm06ELZwk0Wj_IMWL63B-37" value="12: connects vCenter" style="edgeLabel;html=1;align=center;verticalAlign=middle;resizable=0;points=[];" parent="Qm06ELZwk0Wj_IMWL63B-36" vertex="1" connectable="0">
          <mxGeometry x="0.2151" y="-1" relative="1" as="geometry">
            <mxPoint x="-146" y="-1" as="offset" />
          </mxGeometry>
        </mxCell>
        <mxCell id="Qm06ELZwk0Wj_IMWL63B-38" value="" style="curved=1;endArrow=classic;html=1;exitX=1;exitY=0.074;exitDx=0;exitDy=0;exitPerimeter=0;entryX=1;entryY=0.247;entryDx=0;entryDy=0;entryPerimeter=0;" parent="Qm06ELZwk0Wj_IMWL63B-1" edge="1">
          <mxGeometry width="50" height="50" relative="1" as="geometry">
            <mxPoint x="170" y="670.06" as="sourcePoint" />
            <mxPoint x="170" y="702.9299999999998" as="targetPoint" />
            <Array as="points">
              <mxPoint x="205" y="670" />
              <mxPoint x="205" y="696" />
            </Array>
          </mxGeometry>
        </mxCell>
        <mxCell id="Qm06ELZwk0Wj_IMWL63B-39" value="13: connect host &amp;amp; &lt;br&gt;send modify storage pool&lt;br&gt;command" style="edgeLabel;html=1;align=left;verticalAlign=middle;resizable=0;points=[];" parent="Qm06ELZwk0Wj_IMWL63B-38" vertex="1" connectable="0">
          <mxGeometry x="0.0343" y="1" relative="1" as="geometry">
            <mxPoint x="9" as="offset" />
          </mxGeometry>
        </mxCell>
        <mxCell id="Qm06ELZwk0Wj_IMWL63B-40" value="" style="endArrow=classic;html=1;exitX=0.5;exitY=0.881;exitDx=0;exitDy=0;exitPerimeter=0;" parent="Qm06ELZwk0Wj_IMWL63B-1" edge="1">
          <mxGeometry width="50" height="50" relative="1" as="geometry">
            <mxPoint x="170" y="747.22" as="sourcePoint" />
            <mxPoint x="369.5" y="747.22" as="targetPoint" />
          </mxGeometry>
        </mxCell>
        <mxCell id="Qm06ELZwk0Wj_IMWL63B-41" value="14: Finish Rebalancing" style="edgeLabel;html=1;align=center;verticalAlign=middle;resizable=0;points=[];" parent="Qm06ELZwk0Wj_IMWL63B-40" vertex="1" connectable="0">
          <mxGeometry x="0.2151" y="-1" relative="1" as="geometry">
            <mxPoint x="-31" y="-1" as="offset" />
          </mxGeometry>
        </mxCell>
        <mxCell id="Qm06ELZwk0Wj_IMWL63B-42" value="" style="points=[];perimeter=orthogonalPerimeter;rounded=0;shadow=0;strokeWidth=1;" parent="Qm06ELZwk0Wj_IMWL63B-1" vertex="1">
          <mxGeometry x="699" y="434" width="10" height="30" as="geometry" />
        </mxCell>
        <mxCell id="Qm06ELZwk0Wj_IMWL63B-43" value="" style="points=[];perimeter=orthogonalPerimeter;rounded=0;shadow=0;strokeWidth=1;" parent="Qm06ELZwk0Wj_IMWL63B-1" vertex="1">
          <mxGeometry x="700" y="613" width="10" height="30" as="geometry" />
        </mxCell>
        <mxCell id="Qm06ELZwk0Wj_IMWL63B-44" value="" style="endArrow=classic;html=1;exitX=0.9;exitY=0.633;exitDx=0;exitDy=0;exitPerimeter=0;" parent="Qm06ELZwk0Wj_IMWL63B-1" source="Qm06ELZwk0Wj_IMWL63B-8" target="Qm06ELZwk0Wj_IMWL63B-20" edge="1">
          <mxGeometry width="50" height="50" relative="1" as="geometry">
            <mxPoint x="180" y="350" as="sourcePoint" />
            <mxPoint x="710" y="350" as="targetPoint" />
          </mxGeometry>
        </mxCell>
        <mxCell id="Qm06ELZwk0Wj_IMWL63B-45" value="Update host with status&lt;br&gt;&quot;Rebalancing&quot;" style="edgeLabel;html=1;align=center;verticalAlign=middle;resizable=0;points=[];" parent="Qm06ELZwk0Wj_IMWL63B-44" vertex="1" connectable="0">
          <mxGeometry x="0.2151" y="-1" relative="1" as="geometry">
            <mxPoint x="-6" y="-1" as="offset" />
          </mxGeometry>
        </mxCell>
        <mxCell id="Qm06ELZwk0Wj_IMWL63B-46" value="Request Agent &#xa;Rebalance fails" style="verticalAlign=bottom;endArrow=open;dashed=1;endSize=8;shadow=0;strokeWidth=1;entryX=0.5;entryY=0.485;entryDx=0;entryDy=0;entryPerimeter=0;" parent="Qm06ELZwk0Wj_IMWL63B-1" source="Qm06ELZwk0Wj_IMWL63B-3" target="Qm06ELZwk0Wj_IMWL63B-20" edge="1">
          <mxGeometry x="-0.7133" y="-17" relative="1" as="geometry">
            <mxPoint x="700" y="450" as="targetPoint" />
            <mxPoint x="377" y="410" as="sourcePoint" />
            <Array as="points">
              <mxPoint x="270" y="433" />
              <mxPoint x="350" y="433" />
              <mxPoint x="490" y="433" />
            </Array>
            <mxPoint as="offset" />
          </mxGeometry>
        </mxCell>
        <mxCell id="Qm06ELZwk0Wj_IMWL63B-47" value="" style="endArrow=classic;html=1;entryX=0.491;entryY=0.853;entryDx=0;entryDy=0;entryPerimeter=0;" parent="Qm06ELZwk0Wj_IMWL63B-1" edge="1">
          <mxGeometry width="50" height="50" relative="1" as="geometry">
            <mxPoint x="170" y="704" as="sourcePoint" />
            <mxPoint x="704.01" y="706.69" as="targetPoint" />
          </mxGeometry>
        </mxCell>
        <mxCell id="Qm06ELZwk0Wj_IMWL63B-48" value="14: Storage pool and &lt;br&gt;details updates" style="edgeLabel;html=1;align=center;verticalAlign=middle;resizable=0;points=[];" parent="Qm06ELZwk0Wj_IMWL63B-47" vertex="1" connectable="0">
          <mxGeometry x="0.6591" y="2" relative="1" as="geometry">
            <mxPoint as="offset" />
          </mxGeometry>
        </mxCell>
        <mxCell id="Qm06ELZwk0Wj_IMWL63B-49" value="" style="points=[];perimeter=orthogonalPerimeter;rounded=0;shadow=0;strokeWidth=1;" parent="Qm06ELZwk0Wj_IMWL63B-1" vertex="1">
          <mxGeometry x="160" y="340" width="10" height="380" as="geometry" />
        </mxCell>
        <mxCell id="Qm06ELZwk0Wj_IMWL63B-50" value="" style="points=[];perimeter=orthogonalPerimeter;rounded=0;shadow=0;strokeWidth=1;" parent="Qm06ELZwk0Wj_IMWL63B-1" vertex="1">
          <mxGeometry x="165" y="670" width="10" height="30" as="geometry" />
        </mxCell>
        <mxCell id="Qm06ELZwk0Wj_IMWL63B-51" value="2019-May-20, &lt;br&gt;2020-Oct-01, &lt;br&gt;2020-Oct-20" style="text;html=1;strokeColor=none;fillColor=none;align=left;verticalAlign=middle;whiteSpace=wrap;rounded=0;fontStyle=1" parent="Qm06ELZwk0Wj_IMWL63B-1" vertex="1">
          <mxGeometry x="130" y="10" width="100" height="50" as="geometry" />
        </mxCell>
        <mxCell id="Qm06ELZwk0Wj_IMWL63B-52" value="Typically: &lt;b&gt;&amp;lt;5 secs&lt;/b&gt;.&lt;br&gt;During the occurrence took &lt;b&gt;&amp;gt; 35mins&lt;/b&gt;" style="text;html=1;strokeColor=none;fillColor=none;align=left;verticalAlign=middle;whiteSpace=wrap;rounded=0;" parent="Qm06ELZwk0Wj_IMWL63B-1" vertex="1">
          <mxGeometry x="760" y="550" width="220" height="110" as="geometry" />
        </mxCell>
      </root>
    </mxGraphModel>
  </diagram>
  <diagram name="DB_StorageDetailsUpdate" id="d4YHsx0g6NMlCDFYUy8T">
    <mxGraphModel dx="782" dy="468" grid="1" gridSize="10" guides="1" tooltips="1" connect="1" arrows="1" fold="1" page="1" pageScale="1" pageWidth="1400" pageHeight="850" math="0" shadow="0">
      <root>
        <mxCell id="HZI8Mp4nYyG-MqFrq8Rd-0" />
        <mxCell id="HZI8Mp4nYyG-MqFrq8Rd-1" parent="HZI8Mp4nYyG-MqFrq8Rd-0" />
        <mxCell id="HZI8Mp4nYyG-MqFrq8Rd-2" value="M1" style="shape=umlLifeline;perimeter=lifelinePerimeter;container=1;collapsible=0;recursiveResize=0;rounded=0;shadow=0;strokeWidth=1;" parent="HZI8Mp4nYyG-MqFrq8Rd-1" vertex="1">
          <mxGeometry x="120" y="80" width="100" height="750" as="geometry" />
        </mxCell>
        <mxCell id="HZI8Mp4nYyG-MqFrq8Rd-3" value="" style="points=[];perimeter=orthogonalPerimeter;rounded=0;shadow=0;strokeWidth=1;" parent="HZI8Mp4nYyG-MqFrq8Rd-2" vertex="1">
          <mxGeometry x="45" y="70" width="10" height="620" as="geometry" />
        </mxCell>
        <mxCell id="HZI8Mp4nYyG-MqFrq8Rd-4" value="Joined/Restarted" style="verticalAlign=bottom;startArrow=oval;endArrow=block;startSize=8;shadow=0;strokeWidth=1;" parent="HZI8Mp4nYyG-MqFrq8Rd-2" target="HZI8Mp4nYyG-MqFrq8Rd-3" edge="1">
          <mxGeometry relative="1" as="geometry">
            <mxPoint x="-50" y="70" as="sourcePoint" />
          </mxGeometry>
        </mxCell>
        <mxCell id="HZI8Mp4nYyG-MqFrq8Rd-5" value="" style="curved=1;endArrow=classic;html=1;" parent="HZI8Mp4nYyG-MqFrq8Rd-2" edge="1">
          <mxGeometry width="50" height="50" relative="1" as="geometry">
            <mxPoint x="50" y="84" as="sourcePoint" />
            <mxPoint x="50" y="120" as="targetPoint" />
            <Array as="points">
              <mxPoint x="90" y="84" />
              <mxPoint x="90" y="110" />
            </Array>
          </mxGeometry>
        </mxCell>
        <mxCell id="HZI8Mp4nYyG-MqFrq8Rd-6" value="1:&lt;br&gt;&lt;div&gt;listAllMS(state_up)&lt;/div&gt;&lt;div&gt;listAllAgents(type_routing)&lt;/div&gt;" style="edgeLabel;html=1;align=left;verticalAlign=middle;resizable=0;points=[];" parent="HZI8Mp4nYyG-MqFrq8Rd-5" vertex="1" connectable="0">
          <mxGeometry x="0.0343" y="1" relative="1" as="geometry">
            <mxPoint x="9" as="offset" />
          </mxGeometry>
        </mxCell>
        <mxCell id="HZI8Mp4nYyG-MqFrq8Rd-7" value="M2" style="shape=umlLifeline;perimeter=lifelinePerimeter;container=1;collapsible=0;recursiveResize=0;rounded=0;shadow=0;strokeWidth=1;" parent="HZI8Mp4nYyG-MqFrq8Rd-1" vertex="1">
          <mxGeometry x="315" y="80" width="110" height="730" as="geometry" />
        </mxCell>
        <mxCell id="HZI8Mp4nYyG-MqFrq8Rd-8" value="" style="points=[];perimeter=orthogonalPerimeter;rounded=0;shadow=0;strokeWidth=1;" parent="HZI8Mp4nYyG-MqFrq8Rd-7" vertex="1">
          <mxGeometry x="52" y="280" width="10" height="400" as="geometry" />
        </mxCell>
        <mxCell id="HZI8Mp4nYyG-MqFrq8Rd-9" value="vCenter" style="shape=umlLifeline;perimeter=lifelinePerimeter;container=1;collapsible=0;recursiveResize=0;rounded=0;shadow=0;strokeWidth=1;" parent="HZI8Mp4nYyG-MqFrq8Rd-1" vertex="1">
          <mxGeometry x="480" y="80" width="110" height="740" as="geometry" />
        </mxCell>
        <mxCell id="HZI8Mp4nYyG-MqFrq8Rd-10" value="" style="points=[];perimeter=orthogonalPerimeter;rounded=0;shadow=0;strokeWidth=1;fillColor=#FFFFFF;" parent="HZI8Mp4nYyG-MqFrq8Rd-9" vertex="1">
          <mxGeometry x="50" y="570" width="10" height="30" as="geometry" />
        </mxCell>
        <mxCell id="HZI8Mp4nYyG-MqFrq8Rd-11" value="Request Agent &#xa;Rebalance fails" style="verticalAlign=bottom;endArrow=open;dashed=1;endSize=8;shadow=0;strokeWidth=1;entryX=0.5;entryY=0.595;entryDx=0;entryDy=0;entryPerimeter=0;" parent="HZI8Mp4nYyG-MqFrq8Rd-1" edge="1">
          <mxGeometry x="0.0863" y="18" relative="1" as="geometry">
            <mxPoint x="170" y="400.0000000000001" as="targetPoint" />
            <mxPoint x="367" y="400.0000000000001" as="sourcePoint" />
            <Array as="points" />
            <mxPoint as="offset" />
          </mxGeometry>
        </mxCell>
        <mxCell id="HZI8Mp4nYyG-MqFrq8Rd-12" value="" style="curved=1;endArrow=classic;html=1;exitX=1;exitY=0.074;exitDx=0;exitDy=0;exitPerimeter=0;entryX=1;entryY=0.247;entryDx=0;entryDy=0;entryPerimeter=0;" parent="HZI8Mp4nYyG-MqFrq8Rd-1" edge="1">
          <mxGeometry width="50" height="50" relative="1" as="geometry">
            <mxPoint x="170" y="213.5999999999999" as="sourcePoint" />
            <mxPoint x="170" y="246.4699999999999" as="targetPoint" />
            <Array as="points">
              <mxPoint x="205" y="213.54" />
              <mxPoint x="205" y="239.54" />
            </Array>
          </mxGeometry>
        </mxCell>
        <mxCell id="HZI8Mp4nYyG-MqFrq8Rd-13" value="2:&lt;br&gt;calc avLoad()" style="edgeLabel;html=1;align=left;verticalAlign=middle;resizable=0;points=[];" parent="HZI8Mp4nYyG-MqFrq8Rd-12" vertex="1" connectable="0">
          <mxGeometry x="0.0343" y="1" relative="1" as="geometry">
            <mxPoint x="9" as="offset" />
          </mxGeometry>
        </mxCell>
        <mxCell id="HZI8Mp4nYyG-MqFrq8Rd-14" value="" style="curved=1;endArrow=classic;html=1;exitX=1;exitY=0.074;exitDx=0;exitDy=0;exitPerimeter=0;entryX=1;entryY=0.247;entryDx=0;entryDy=0;entryPerimeter=0;" parent="HZI8Mp4nYyG-MqFrq8Rd-1" edge="1">
          <mxGeometry width="50" height="50" relative="1" as="geometry">
            <mxPoint x="170" y="260.05999999999995" as="sourcePoint" />
            <mxPoint x="170" y="292.92999999999984" as="targetPoint" />
            <Array as="points">
              <mxPoint x="205" y="260" />
              <mxPoint x="205" y="286" />
            </Array>
          </mxGeometry>
        </mxCell>
        <mxCell id="HZI8Mp4nYyG-MqFrq8Rd-15" value="3:&lt;br&gt;list(getHostsToRebalance)" style="edgeLabel;html=1;align=left;verticalAlign=middle;resizable=0;points=[];" parent="HZI8Mp4nYyG-MqFrq8Rd-14" vertex="1" connectable="0">
          <mxGeometry x="0.0343" y="1" relative="1" as="geometry">
            <mxPoint x="9" as="offset" />
          </mxGeometry>
        </mxCell>
        <mxCell id="HZI8Mp4nYyG-MqFrq8Rd-16" value="" style="curved=1;endArrow=classic;html=1;exitX=1;exitY=0.074;exitDx=0;exitDy=0;exitPerimeter=0;entryX=1;entryY=0.247;entryDx=0;entryDy=0;entryPerimeter=0;" parent="HZI8Mp4nYyG-MqFrq8Rd-1" edge="1">
          <mxGeometry width="50" height="50" relative="1" as="geometry">
            <mxPoint x="170" y="306.05999999999995" as="sourcePoint" />
            <mxPoint x="170" y="338.92999999999984" as="targetPoint" />
            <Array as="points">
              <mxPoint x="205" y="306" />
              <mxPoint x="205" y="332" />
            </Array>
          </mxGeometry>
        </mxCell>
        <mxCell id="HZI8Mp4nYyG-MqFrq8Rd-17" value="4:&lt;br&gt;HostInUsebyAnyone?" style="edgeLabel;html=1;align=left;verticalAlign=middle;resizable=0;points=[];" parent="HZI8Mp4nYyG-MqFrq8Rd-16" vertex="1" connectable="0">
          <mxGeometry x="0.0343" y="1" relative="1" as="geometry">
            <mxPoint x="9" as="offset" />
          </mxGeometry>
        </mxCell>
        <mxCell id="HZI8Mp4nYyG-MqFrq8Rd-18" value="" style="endArrow=classic;html=1;" parent="HZI8Mp4nYyG-MqFrq8Rd-1" edge="1">
          <mxGeometry width="50" height="50" relative="1" as="geometry">
            <mxPoint x="170" y="340" as="sourcePoint" />
            <mxPoint x="700" y="340" as="targetPoint" />
          </mxGeometry>
        </mxCell>
        <mxCell id="HZI8Mp4nYyG-MqFrq8Rd-19" value="5: update table op_host_transfer&lt;br&gt;(hostId, initialOwner, futureOwner)" style="edgeLabel;html=1;align=center;verticalAlign=middle;resizable=0;points=[];" parent="HZI8Mp4nYyG-MqFrq8Rd-18" vertex="1" connectable="0">
          <mxGeometry x="0.2151" y="-1" relative="1" as="geometry">
            <mxPoint x="98" y="-1" as="offset" />
          </mxGeometry>
        </mxCell>
        <mxCell id="HZI8Mp4nYyG-MqFrq8Rd-20" value="DB" style="shape=umlLifeline;perimeter=lifelinePerimeter;container=1;collapsible=0;recursiveResize=0;rounded=0;shadow=0;strokeWidth=1;" parent="HZI8Mp4nYyG-MqFrq8Rd-1" vertex="1">
          <mxGeometry x="650" y="80" width="110" height="730" as="geometry" />
        </mxCell>
        <mxCell id="HZI8Mp4nYyG-MqFrq8Rd-21" value="" style="points=[];perimeter=orthogonalPerimeter;rounded=0;shadow=0;strokeWidth=1;" parent="HZI8Mp4nYyG-MqFrq8Rd-20" vertex="1">
          <mxGeometry x="50" y="260" width="10" height="30" as="geometry" />
        </mxCell>
        <mxCell id="HZI8Mp4nYyG-MqFrq8Rd-22" value="" style="points=[];perimeter=orthogonalPerimeter;rounded=0;shadow=0;strokeWidth=1;fillColor=#FF0000;" parent="HZI8Mp4nYyG-MqFrq8Rd-20" vertex="1">
          <mxGeometry x="49" y="626" width="10" height="24" as="geometry" />
        </mxCell>
        <mxCell id="HZI8Mp4nYyG-MqFrq8Rd-23" value="" style="endArrow=classic;html=1;" parent="HZI8Mp4nYyG-MqFrq8Rd-1" target="HZI8Mp4nYyG-MqFrq8Rd-8" edge="1">
          <mxGeometry width="50" height="50" relative="1" as="geometry">
            <mxPoint x="170" y="370" as="sourcePoint" />
            <mxPoint x="520" y="360" as="targetPoint" />
          </mxGeometry>
        </mxCell>
        <mxCell id="HZI8Mp4nYyG-MqFrq8Rd-24" value="6: sendRebalance command &lt;br&gt;to current Host Owner" style="edgeLabel;html=1;align=center;verticalAlign=middle;resizable=0;points=[];" parent="HZI8Mp4nYyG-MqFrq8Rd-23" vertex="1" connectable="0">
          <mxGeometry x="0.2151" y="-1" relative="1" as="geometry">
            <mxPoint x="-20" y="-1" as="offset" />
          </mxGeometry>
        </mxCell>
        <mxCell id="HZI8Mp4nYyG-MqFrq8Rd-25" value="" style="curved=1;endArrow=classic;html=1;exitX=1;exitY=0.074;exitDx=0;exitDy=0;exitPerimeter=0;entryX=1;entryY=0.247;entryDx=0;entryDy=0;entryPerimeter=0;" parent="HZI8Mp4nYyG-MqFrq8Rd-1" edge="1">
          <mxGeometry width="50" height="50" relative="1" as="geometry">
            <mxPoint x="370" y="380.05999999999995" as="sourcePoint" />
            <mxPoint x="370" y="412.92999999999984" as="targetPoint" />
            <Array as="points">
              <mxPoint x="405" y="380" />
              <mxPoint x="405" y="406" />
            </Array>
          </mxGeometry>
        </mxCell>
        <mxCell id="HZI8Mp4nYyG-MqFrq8Rd-26" value="7: receive &lt;br&gt;Rebalance request" style="edgeLabel;html=1;align=left;verticalAlign=middle;resizable=0;points=[];" parent="HZI8Mp4nYyG-MqFrq8Rd-25" vertex="1" connectable="0">
          <mxGeometry x="0.0343" y="1" relative="1" as="geometry">
            <mxPoint x="9" as="offset" />
          </mxGeometry>
        </mxCell>
        <mxCell id="HZI8Mp4nYyG-MqFrq8Rd-27" value="" style="curved=1;endArrow=classic;html=1;exitX=1;exitY=0.074;exitDx=0;exitDy=0;exitPerimeter=0;entryX=1;entryY=0.247;entryDx=0;entryDy=0;entryPerimeter=0;" parent="HZI8Mp4nYyG-MqFrq8Rd-1" edge="1">
          <mxGeometry width="50" height="50" relative="1" as="geometry">
            <mxPoint x="370" y="450.05999999999995" as="sourcePoint" />
            <mxPoint x="370" y="482.92999999999984" as="targetPoint" />
            <Array as="points">
              <mxPoint x="405" y="450" />
              <mxPoint x="405" y="476" />
            </Array>
          </mxGeometry>
        </mxCell>
        <mxCell id="HZI8Mp4nYyG-MqFrq8Rd-28" value="8: Add host in agent&lt;br&gt;ToTransferIds" style="edgeLabel;html=1;align=left;verticalAlign=middle;resizable=0;points=[];" parent="HZI8Mp4nYyG-MqFrq8Rd-27" vertex="1" connectable="0">
          <mxGeometry x="0.0343" y="1" relative="1" as="geometry">
            <mxPoint x="9" as="offset" />
          </mxGeometry>
        </mxCell>
        <mxCell id="HZI8Mp4nYyG-MqFrq8Rd-29" value="" style="points=[];perimeter=orthogonalPerimeter;rounded=0;shadow=0;strokeWidth=1;" parent="HZI8Mp4nYyG-MqFrq8Rd-1" vertex="1">
          <mxGeometry x="370" y="496" width="10" height="40" as="geometry" />
        </mxCell>
        <mxCell id="HZI8Mp4nYyG-MqFrq8Rd-30" value="" style="curved=1;endArrow=classic;html=1;exitX=1;exitY=0.074;exitDx=0;exitDy=0;exitPerimeter=0;entryX=1;entryY=0.247;entryDx=0;entryDy=0;entryPerimeter=0;" parent="HZI8Mp4nYyG-MqFrq8Rd-1" edge="1">
          <mxGeometry width="50" height="50" relative="1" as="geometry">
            <mxPoint x="370" y="560.06" as="sourcePoint" />
            <mxPoint x="370" y="592.9299999999998" as="targetPoint" />
            <Array as="points">
              <mxPoint x="405" y="560" />
              <mxPoint x="405" y="586" />
            </Array>
          </mxGeometry>
        </mxCell>
        <mxCell id="HZI8Mp4nYyG-MqFrq8Rd-31" value="10: check task timeout" style="edgeLabel;html=1;align=left;verticalAlign=middle;resizable=0;points=[];" parent="HZI8Mp4nYyG-MqFrq8Rd-30" vertex="1" connectable="0">
          <mxGeometry x="0.0343" y="1" relative="1" as="geometry">
            <mxPoint x="9" as="offset" />
          </mxGeometry>
        </mxCell>
        <mxCell id="HZI8Mp4nYyG-MqFrq8Rd-32" value="" style="curved=1;endArrow=classic;html=1;exitX=1;exitY=0.074;exitDx=0;exitDy=0;exitPerimeter=0;entryX=1;entryY=0.247;entryDx=0;entryDy=0;entryPerimeter=0;" parent="HZI8Mp4nYyG-MqFrq8Rd-1" edge="1">
          <mxGeometry width="50" height="50" relative="1" as="geometry">
            <mxPoint x="376" y="499.05999999999995" as="sourcePoint" />
            <mxPoint x="376" y="531.9299999999998" as="targetPoint" />
            <Array as="points">
              <mxPoint x="411" y="499" />
              <mxPoint x="411" y="525" />
            </Array>
          </mxGeometry>
        </mxCell>
        <mxCell id="HZI8Mp4nYyG-MqFrq8Rd-33" value="9: getTrasnferScanTask" style="edgeLabel;html=1;align=left;verticalAlign=middle;resizable=0;points=[];" parent="HZI8Mp4nYyG-MqFrq8Rd-32" vertex="1" connectable="0">
          <mxGeometry x="0.0343" y="1" relative="1" as="geometry">
            <mxPoint x="9" as="offset" />
          </mxGeometry>
        </mxCell>
        <mxCell id="HZI8Mp4nYyG-MqFrq8Rd-34" value="" style="endArrow=classic;html=1;" parent="HZI8Mp4nYyG-MqFrq8Rd-1" edge="1">
          <mxGeometry width="50" height="50" relative="1" as="geometry">
            <mxPoint x="370" y="623" as="sourcePoint" />
            <mxPoint x="170" y="623" as="targetPoint" />
          </mxGeometry>
        </mxCell>
        <mxCell id="HZI8Mp4nYyG-MqFrq8Rd-35" value="11: send RebalanceHost &lt;br&gt;command" style="edgeLabel;html=1;align=center;verticalAlign=middle;resizable=0;points=[];" parent="HZI8Mp4nYyG-MqFrq8Rd-34" vertex="1" connectable="0">
          <mxGeometry x="0.2151" y="-1" relative="1" as="geometry">
            <mxPoint x="16" y="-1" as="offset" />
          </mxGeometry>
        </mxCell>
        <mxCell id="HZI8Mp4nYyG-MqFrq8Rd-36" value="" style="endArrow=classic;html=1;entryX=1;entryY=0;entryDx=0;entryDy=0;entryPerimeter=0;" parent="HZI8Mp4nYyG-MqFrq8Rd-1" target="HZI8Mp4nYyG-MqFrq8Rd-10" edge="1">
          <mxGeometry width="50" height="50" relative="1" as="geometry">
            <mxPoint x="174" y="650" as="sourcePoint" />
            <mxPoint x="180" y="633" as="targetPoint" />
          </mxGeometry>
        </mxCell>
        <mxCell id="HZI8Mp4nYyG-MqFrq8Rd-37" value="12: connects vCenter" style="edgeLabel;html=1;align=center;verticalAlign=middle;resizable=0;points=[];" parent="HZI8Mp4nYyG-MqFrq8Rd-36" vertex="1" connectable="0">
          <mxGeometry x="0.2151" y="-1" relative="1" as="geometry">
            <mxPoint x="-146" y="-1" as="offset" />
          </mxGeometry>
        </mxCell>
        <mxCell id="HZI8Mp4nYyG-MqFrq8Rd-38" value="" style="curved=1;endArrow=classic;html=1;exitX=1;exitY=0.074;exitDx=0;exitDy=0;exitPerimeter=0;entryX=1;entryY=0.247;entryDx=0;entryDy=0;entryPerimeter=0;" parent="HZI8Mp4nYyG-MqFrq8Rd-1" edge="1">
          <mxGeometry width="50" height="50" relative="1" as="geometry">
            <mxPoint x="170" y="670.06" as="sourcePoint" />
            <mxPoint x="170" y="702.9299999999998" as="targetPoint" />
            <Array as="points">
              <mxPoint x="205" y="670" />
              <mxPoint x="205" y="696" />
            </Array>
          </mxGeometry>
        </mxCell>
        <mxCell id="HZI8Mp4nYyG-MqFrq8Rd-39" value="13: connect host &amp;amp; &lt;br&gt;send modify storage pool&lt;br&gt;command" style="edgeLabel;html=1;align=left;verticalAlign=middle;resizable=0;points=[];" parent="HZI8Mp4nYyG-MqFrq8Rd-38" vertex="1" connectable="0">
          <mxGeometry x="0.0343" y="1" relative="1" as="geometry">
            <mxPoint x="9" as="offset" />
          </mxGeometry>
        </mxCell>
        <mxCell id="HZI8Mp4nYyG-MqFrq8Rd-40" value="" style="endArrow=classic;html=1;exitX=0.5;exitY=0.881;exitDx=0;exitDy=0;exitPerimeter=0;" parent="HZI8Mp4nYyG-MqFrq8Rd-1" edge="1">
          <mxGeometry width="50" height="50" relative="1" as="geometry">
            <mxPoint x="170" y="747.22" as="sourcePoint" />
            <mxPoint x="369.5" y="747.22" as="targetPoint" />
          </mxGeometry>
        </mxCell>
        <mxCell id="HZI8Mp4nYyG-MqFrq8Rd-41" value="14: Finish Rebalancing" style="edgeLabel;html=1;align=center;verticalAlign=middle;resizable=0;points=[];" parent="HZI8Mp4nYyG-MqFrq8Rd-40" vertex="1" connectable="0">
          <mxGeometry x="0.2151" y="-1" relative="1" as="geometry">
            <mxPoint x="-31" y="-1" as="offset" />
          </mxGeometry>
        </mxCell>
        <mxCell id="HZI8Mp4nYyG-MqFrq8Rd-42" value="" style="points=[];perimeter=orthogonalPerimeter;rounded=0;shadow=0;strokeWidth=1;" parent="HZI8Mp4nYyG-MqFrq8Rd-1" vertex="1">
          <mxGeometry x="699" y="434" width="10" height="30" as="geometry" />
        </mxCell>
        <mxCell id="HZI8Mp4nYyG-MqFrq8Rd-43" value="" style="points=[];perimeter=orthogonalPerimeter;rounded=0;shadow=0;strokeWidth=1;" parent="HZI8Mp4nYyG-MqFrq8Rd-1" vertex="1">
          <mxGeometry x="700" y="613" width="10" height="30" as="geometry" />
        </mxCell>
        <mxCell id="HZI8Mp4nYyG-MqFrq8Rd-44" value="" style="endArrow=classic;html=1;exitX=0.9;exitY=0.633;exitDx=0;exitDy=0;exitPerimeter=0;" parent="HZI8Mp4nYyG-MqFrq8Rd-1" source="HZI8Mp4nYyG-MqFrq8Rd-8" target="HZI8Mp4nYyG-MqFrq8Rd-20" edge="1">
          <mxGeometry width="50" height="50" relative="1" as="geometry">
            <mxPoint x="180" y="350" as="sourcePoint" />
            <mxPoint x="710" y="350" as="targetPoint" />
          </mxGeometry>
        </mxCell>
        <mxCell id="HZI8Mp4nYyG-MqFrq8Rd-45" value="Update host with status&lt;br&gt;&quot;Rebalancing&quot;" style="edgeLabel;html=1;align=center;verticalAlign=middle;resizable=0;points=[];" parent="HZI8Mp4nYyG-MqFrq8Rd-44" vertex="1" connectable="0">
          <mxGeometry x="0.2151" y="-1" relative="1" as="geometry">
            <mxPoint x="-6" y="-1" as="offset" />
          </mxGeometry>
        </mxCell>
        <mxCell id="HZI8Mp4nYyG-MqFrq8Rd-46" value="Request Agent &#xa;Rebalance fails" style="verticalAlign=bottom;endArrow=open;dashed=1;endSize=8;shadow=0;strokeWidth=1;entryX=0.5;entryY=0.485;entryDx=0;entryDy=0;entryPerimeter=0;" parent="HZI8Mp4nYyG-MqFrq8Rd-1" source="HZI8Mp4nYyG-MqFrq8Rd-3" target="HZI8Mp4nYyG-MqFrq8Rd-20" edge="1">
          <mxGeometry x="-0.7133" y="-17" relative="1" as="geometry">
            <mxPoint x="700" y="450" as="targetPoint" />
            <mxPoint x="377" y="410" as="sourcePoint" />
            <Array as="points">
              <mxPoint x="270" y="433" />
              <mxPoint x="350" y="433" />
              <mxPoint x="490" y="433" />
            </Array>
            <mxPoint as="offset" />
          </mxGeometry>
        </mxCell>
        <mxCell id="HZI8Mp4nYyG-MqFrq8Rd-47" value="" style="endArrow=classic;html=1;entryX=0.491;entryY=0.853;entryDx=0;entryDy=0;entryPerimeter=0;" parent="HZI8Mp4nYyG-MqFrq8Rd-1" edge="1">
          <mxGeometry width="50" height="50" relative="1" as="geometry">
            <mxPoint x="170" y="704" as="sourcePoint" />
            <mxPoint x="704.01" y="706.69" as="targetPoint" />
          </mxGeometry>
        </mxCell>
        <mxCell id="HZI8Mp4nYyG-MqFrq8Rd-48" value="14: Storage pool and &lt;br&gt;details updates" style="edgeLabel;html=1;align=center;verticalAlign=middle;resizable=0;points=[];" parent="HZI8Mp4nYyG-MqFrq8Rd-47" vertex="1" connectable="0">
          <mxGeometry x="0.6591" y="2" relative="1" as="geometry">
            <mxPoint as="offset" />
          </mxGeometry>
        </mxCell>
        <mxCell id="HZI8Mp4nYyG-MqFrq8Rd-49" value="" style="points=[];perimeter=orthogonalPerimeter;rounded=0;shadow=0;strokeWidth=1;" parent="HZI8Mp4nYyG-MqFrq8Rd-1" vertex="1">
          <mxGeometry x="160" y="340" width="10" height="380" as="geometry" />
        </mxCell>
        <mxCell id="HZI8Mp4nYyG-MqFrq8Rd-50" value="" style="points=[];perimeter=orthogonalPerimeter;rounded=0;shadow=0;strokeWidth=1;" parent="HZI8Mp4nYyG-MqFrq8Rd-1" vertex="1">
          <mxGeometry x="165" y="670" width="10" height="30" as="geometry" />
        </mxCell>
        <mxCell id="HZI8Mp4nYyG-MqFrq8Rd-51" value="2021-June-01, &lt;br&gt;2020-Aug-05" style="text;html=1;strokeColor=none;fillColor=none;align=left;verticalAlign=middle;whiteSpace=wrap;rounded=0;fontStyle=1" parent="HZI8Mp4nYyG-MqFrq8Rd-1" vertex="1">
          <mxGeometry x="130" y="10" width="100" height="50" as="geometry" />
        </mxCell>
        <mxCell id="HZI8Mp4nYyG-MqFrq8Rd-52" value="&lt;b&gt;Per storage pool per host&lt;/b&gt;&lt;br&gt;Typically: ~1&amp;nbsp;&lt;b&gt;secs&amp;nbsp;&lt;br&gt;&lt;/b&gt;During 1st occurrence took ~&lt;b&gt;20-30secs&lt;/b&gt;&lt;br&gt;During 2nd occurrence took &lt;b&gt;&amp;gt; 2mins&lt;/b&gt;" style="text;html=1;strokeColor=none;fillColor=none;align=left;verticalAlign=middle;whiteSpace=wrap;rounded=0;" parent="HZI8Mp4nYyG-MqFrq8Rd-1" vertex="1">
          <mxGeometry x="760" y="550" width="220" height="110" as="geometry" />
        </mxCell>
      </root>
    </mxGraphModel>
  </diagram>
  <diagram id="OQnDcpjC6Pf1ijwBzw8F" name="Improvements">
    <mxGraphModel dx="782" dy="468" grid="1" gridSize="10" guides="1" tooltips="1" connect="1" arrows="1" fold="1" page="1" pageScale="1" pageWidth="1400" pageHeight="850" math="0" shadow="0">
      <root>
        <mxCell id="0xRtOaSaUAhd-EaK5oOX-0" />
        <mxCell id="0xRtOaSaUAhd-EaK5oOX-1" parent="0xRtOaSaUAhd-EaK5oOX-0" />
        <mxCell id="0xRtOaSaUAhd-EaK5oOX-2" value="&lt;u&gt;Improvements:&lt;/u&gt;&lt;br&gt;1. 2020-Mar-10: Cancel rebalance task timeout configuration introduced&lt;br&gt;2. 2020-Nov-11: Agent in-memory cache cleanup for rebalance failed host&lt;br&gt;&lt;b&gt;3. 2021-Aug-05: Improve host connect process by refining storage pool related db operations&lt;/b&gt;&lt;br&gt;&lt;br&gt;&lt;u&gt;Logging&lt;/u&gt;:&lt;br&gt;1. vCenter connection related logging&lt;br&gt;&lt;b&gt;2. Modify storage pool command flow related logging&lt;/b&gt;" style="text;html=1;strokeColor=none;fillColor=none;align=left;verticalAlign=middle;whiteSpace=wrap;rounded=0;" parent="0xRtOaSaUAhd-EaK5oOX-1" vertex="1">
          <mxGeometry x="70" y="50" width="600" height="180" as="geometry" />
        </mxCell>
      </root>
    </mxGraphModel>
  </diagram>
</mxfile>
